<svg xmlns="http://www.w3.org/2000/svg" viewBox="0 0 1400 520" fill="none">
  <defs>
    <linearGradient id="gear" x1="42" x2="214" y1="34" y2="222" gradientUnits="userSpaceOnUse">
      <stop stop-color="#FFB15D"/>
      <stop offset="0.48" stop-color="#F18A27"/>
      <stop offset="1" stop-color="#9F5819"/>
    </linearGradient>
    <linearGradient id="steel" x1="66" x2="190" y1="56" y2="188" gradientUnits="userSpaceOnUse">
      <stop stop-color="#FCFCFD"/>
      <stop offset="0.38" stop-color="#D7DDE5"/>
      <stop offset="1" stop-color="#9BA3AF"/>
    </linearGradient>
    <linearGradient id="shield" x1="76" x2="184" y1="68" y2="182" gradientUnits="userSpaceOnUse">
      <stop stop-color="#242830"/>
      <stop offset="1" stop-color="#0F1115"/>
    </linearGradient>
    <linearGradient id="brandOrange" x1="478" x2="712" y1="92" y2="410" gradientUnits="userSpaceOnUse">
      <stop stop-color="#FFB15D"/>
      <stop offset="0.48" stop-color="#F18A27"/>
      <stop offset="1" stop-color="#A05C1E"/>
    </linearGradient>
    <linearGradient id="brandIvory" x1="726" x2="1364" y1="82" y2="420" gradientUnits="userSpaceOnUse">
      <stop stop-color="#FFFFFF"/>
      <stop offset="0.55" stop-color="#EFECE5"/>
      <stop offset="1" stop-color="#D3D8E0"/>
    </linearGradient>
  </defs>

  <g transform="translate(246 268) scale(1.72)">
    <g fill="url(#gear)">
      <rect x="-18" y="-118" width="36" height="30" rx="9"/>
      <rect x="-18" y="-118" width="36" height="30" rx="9" transform="rotate(45)"/>
      <rect x="-18" y="-118" width="36" height="30" rx="9" transform="rotate(90)"/>
      <rect x="-18" y="-118" width="36" height="30" rx="9" transform="rotate(135)"/>
      <rect x="-18" y="-118" width="36" height="30" rx="9" transform="rotate(180)"/>
      <rect x="-18" y="-118" width="36" height="30" rx="9" transform="rotate(225)"/>
      <rect x="-18" y="-118" width="36" height="30" rx="9" transform="rotate(270)"/>
      <rect x="-18" y="-118" width="36" height="30" rx="9" transform="rotate(315)"/>
    </g>

    <circle r="96" fill="#F18A271E" stroke="url(#gear)" stroke-width="8"/>
    <path
      d="M0-80L72-56V6C72 54 42 94 0 120C-42 94-72 54-72 6V-56L0-80Z"
      fill="url(#shield)"
      stroke="url(#steel)"
      stroke-width="10"
      stroke-linejoin="round"
    />

    <g opacity="0.96" stroke="#F18A27" stroke-linecap="round" stroke-linejoin="round" stroke-width="5">
      <path d="M-42 6l14-8 14 8v16l-14 8-14-8V6Z"/>
      <path d="M-56 30l14-8 14 8v16l-14 8-14-8V30Z"/>
      <path d="M-28 30l14-8 14 8v16l-14 8-14-8V30Z"/>
    </g>

    <text
      x="-10"
      y="28"
      fill="#F18A27"
      font-family="Arial Black, Arial, sans-serif"
      font-size="100"
      font-weight="900"
      text-anchor="middle"
    >T</text>
    <text
      x="38"
      y="46"
      fill="url(#steel)"
      font-family="Arial Black, Arial, sans-serif"
      font-size="96"
      font-weight="900"
      text-anchor="middle"
    >R</text>
  </g>

  <text
    x="478"
    y="372"
    fill="url(#brandOrange)"
    font-family="Arial Black, Arial, sans-serif"
    font-size="300"
    font-weight="900"
    letter-spacing="-16"
  >O</text>
  <text
    x="722"
    y="372"
    fill="url(#brandIvory)"
    font-family="Arial Black, Arial, sans-serif"
    font-size="300"
    font-weight="900"
    letter-spacing="-18"
  >Trap</text>
</svg>
